HIERARCHY
ROOT pelvis
{
  OFFSET 0 100 0
  CHANNELS 6 Xposition Yposition Zposition Zrotation Xrotation Yrotation
  JOINT pelvis_right_femur
  {
    OFFSET -10.78128 -3.44521 -0.5502486
    CHANNELS 3 Zrotation Xrotation Yrotation
    JOINT right_femur_tibia
    {
      OFFSET -0.8047443 -44.0398 -0.1307829
      CHANNELS 3 Zrotation Xrotation Yrotation
      JOINT right_tibia_foot
      {
        OFFSET 3.006224 -47.83518 -5
        CHANNELS 3 Zrotation Xrotation Yrotation
        End Site
        {
          OFFSET 0 -5 15
        }
      }
    }
  }
  JOINT pelvis_left_femur
  {
    OFFSET 10.78128 -3.44521 -0.5502486
    CHANNELS 3 Zrotation Xrotation Yrotation
    JOINT left_femur_tibia
    {
      OFFSET 0.8047443 -44.0398 -0.1307829
      CHANNELS 3 Zrotation Xrotation Yrotation
      JOINT left_tibia_foot
      {
        OFFSET -4.370144 -48.10324 -4.275266
        CHANNELS 3 Zrotation Xrotation Yrotation
        End Site
        {
          OFFSET 0 -5 15
        }
      }
    }
  }
  JOINT pelvis_spine1
  {
    OFFSET 0 6.468898 -3.129235
    CHANNELS 3 Zrotation Xrotation Yrotation
    JOINT spine1
    {
      OFFSET 0 23.15396 4.99043
      CHANNELS 3 Zrotation Xrotation Yrotation
      JOINT spine2
      {
        OFFSET 0 20.79997 -5.064912
        CHANNELS 3 Zrotation Xrotation Yrotation
        JOINT neck
        {
          OFFSET 0 14.38658 9.616178
          CHANNELS 3 Zrotation Xrotation Yrotation
          End Site
          {
            OFFSET 0 20 0
          }
        }
      }
      JOINT right_manubrium
      {
        OFFSET -5.722621 16.35077 3.967754
        CHANNELS 3 Zrotation Xrotation Yrotation
        JOINT right_clavicle
        {
          OFFSET -13.16364 1.694482 -4.693211
          CHANNELS 3 Zrotation Xrotation Yrotation
          JOINT right_humerus
          {
            OFFSET -28.5034 -0.3100689 -2.792744
            CHANNELS 3 Zrotation Xrotation Yrotation
            JOINT right_radius
            {
              OFFSET -25.15693 0.02248979 -1.271978
              CHANNELS 3 Zrotation Xrotation Yrotation
              End Site
              {
                OFFSET -15 0 0
              }
            }
          }
        }
      }
      JOINT left_manubrium
      {
        OFFSET 5.722621 16.35077 3.967754
        CHANNELS 3 Zrotation Xrotation Yrotation
        JOINT left_clavicle
        {
          OFFSET 13.16364 1.694482 -4.693211
          CHANNELS 3 Zrotation Xrotation Yrotation
          JOINT left_humerus
          {
            OFFSET 29.39168 -1.063119 -2.237045
            CHANNELS 3 Zrotation Xrotation Yrotation
            JOINT left_radius
            {
              OFFSET 24.59957 -0.9528479 0.9047498
              CHANNELS 3 Zrotation Xrotation Yrotation
              End Site
              {
                OFFSET 15 -0 -0
              }
            }
          }
        }
      }
    }
  }
}
MOTION
Frames: 17
Frame Time: 0.0416666666667
-1835.347 102.4303 1319.804 -5.980866 3.193201 -106.5182 7.56244 1.548499 0.09509518 -0 10.22737 -0 -10.13511 -6.072459 -0.5777654 0.001982735 -8.973642 -7.02847 -0 42.36352 -0 -4.218876 -6.95044 16.44777 0.8448919 -1.668903 5.402667 1.291934 13.39278 -7.397214 0.9678375 22.46698 5.206581 1.901957 -22.87257 7.2471 -2.09325 -22.5507 12.4754 91.66072 20.79049 -18.52194 -0 0 15.79903 -20.22882 11.72807 7.947219 6.225764 -22.93862 -3.395123 -93.4884 17.18894 23.33515 0 0 -8.218667 13.67499 15.71733 -6.797555
-1840.351 102.4324 1318.28 -5.969145 3.215114 -106.7279 7.56244 1.548499 0.09509518 -0 10.22737 -0 -10.13511 -6.072459 -0.5777654 0.001982735 -8.973642 -7.02847 -0 42.36352 -0 -4.218876 -6.95044 16.44777 0.8448919 -1.668903 5.402667 1.291934 13.39278 -7.397214 0.9678375 22.46698 5.206581 1.901957 -22.87257 7.2471 -2.09325 -22.5507 12.4754 91.66072 20.79049 -18.52194 -0 0 15.79903 -20.22882 11.72807 7.947219 6.225764 -22.93862 -3.395123 -93.4884 17.18894 23.33515 0 0 -8.218667 13.67499 15.71733 -6.797555
-1845.351 102.4346 1316.737 -5.957343 3.236985 -106.9376 7.56244 1.548499 0.09509518 -0 10.22737 -0 -10.13511 -6.072459 -0.5777654 0.001982735 -8.973642 -7.02847 -0 42.36352 -0 -4.218876 -6.95044 16.44777 0.8448919 -1.668903 5.402667 1.291934 13.39278 -7.397214 0.9678375 22.46698 5.206581 1.901957 -22.87257 7.2471 -2.09325 -22.5507 12.4754 91.66072 20.79049 -18.52194 -0 0 15.79903 -20.22882 11.72807 7.947219 6.225764 -22.93862 -3.395123 -93.4884 17.18894 23.33515 0 0 -8.218667 13.67499 15.71733 -6.797555
-1850.344 102.4368 1315.176 -5.945461 3.258813 -107.1473 7.56244 1.548499 0.09509518 -0 10.22737 -0 -10.13511 -6.072459 -0.5777654 0.001982735 -8.973642 -7.02847 -0 42.36352 -0 -4.218876 -6.95044 16.44777 0.8448919 -1.668903 5.402667 1.291934 13.39278 -7.397214 0.9678375 22.46698 5.206581 1.901957 -22.87257 7.2471 -2.09325 -22.5507 12.4754 91.66072 20.79049 -18.52194 -0 0 15.79903 -20.22882 11.72807 7.947219 6.225764 -22.93862 -3.395123 -93.4884 17.18894 23.33515 0 0 -8.218667 13.67499 15.71733 -6.797555
-1855.332 102.4389 1313.596 -5.933499 3.280597 -107.3571 7.56244 1.548499 0.09509518 -0 10.22737 -0 -10.13511 -6.072459 -0.5777654 0.001982735 -8.973642 -7.02847 -0 42.36352 -0 -4.218876 -6.95044 16.44777 0.8448919 -1.668903 5.402667 1.291934 13.39278 -7.397214 0.9678375 22.46698 5.206581 1.901957 -22.87257 7.2471 -2.09325 -22.5507 12.4754 91.66072 20.79049 -18.52194 -0 0 15.79903 -20.22882 11.72807 7.947219 6.225764 -22.93862 -3.395123 -93.4884 17.18894 23.33515 0 0 -8.218667 13.67499 15.71733 -6.797555
-1860.314 102.4411 1311.999 -5.921457 3.302337 -107.5668 7.56244 1.548499 0.09509518 -0 10.22737 -0 -10.13511 -6.072459 -0.5777654 0.001982735 -8.973642 -7.02847 -0 42.36352 -0 -4.218876 -6.95044 16.44777 0.8448919 -1.668903 5.402667 1.291934 13.39278 -7.397214 0.9678375 22.46698 5.206581 1.901957 -22.87257 7.2471 -2.09325 -22.5507 12.4754 91.66072 20.79049 -18.52194 -0 0 15.79903 -20.22882 11.72807 7.947219 6.225764 -22.93862 -3.395123 -93.4884 17.18894 23.33515 0 0 -8.218667 13.67499 15.71733 -6.797555
-1865.29 102.4433 1310.382 -5.909335 3.324032 -107.7766 7.56244 1.548499 0.09509518 -0 10.22737 -0 -10.13511 -6.072459 -0.5777654 0.001982735 -8.973642 -7.02847 -0 42.36352 -0 -4.218876 -6.95044 16.44777 0.8448919 -1.668903 5.402667 1.291934 13.39278 -7.397214 0.9678375 22.46698 5.206581 1.901957 -22.87257 7.2471 -2.09325 -22.5507 12.4754 91.66072 20.79049 -18.52194 -0 0 15.79903 -20.22882 11.72807 7.947219 6.225764 -22.93862 -3.395123 -93.4884 17.18894 23.33515 0 0 -8.218667 13.67499 15.71733 -6.797555
-1870.26 102.4454 1308.748 -5.897133 3.345684 -107.9863 7.56244 1.548499 0.09509518 -0 10.22737 -0 -10.13511 -6.072459 -0.5777654 0.001982735 -8.973642 -7.02847 -0 42.36352 -0 -4.218876 -6.95044 16.44777 0.8448919 -1.668903 5.402667 1.291934 13.39278 -7.397214 0.9678375 22.46698 5.206581 1.901957 -22.87257 7.2471 -2.09325 -22.5507 12.4754 91.66072 20.79049 -18.52194 -0 0 15.79903 -20.22882 11.72807 7.947219 6.225764 -22.93862 -3.395123 -93.4884 17.18894 23.33515 0 0 -8.218667 13.67499 15.71733 -6.797555
-1875.224 102.4476 1307.095 -5.884852 3.367291 -108.1961 7.56244 1.548499 0.09509518 -0 10.22737 -0 -10.13511 -6.072459 -0.5777654 0.001982735 -8.973642 -7.02847 -0 42.36352 -0 -4.218876 -6.95044 16.44777 0.8448919 -1.668903 5.402667 1.291934 13.39278 -7.397214 0.9678375 22.46698 5.206581 1.901957 -22.87257 7.2471 -2.09325 -22.5507 12.4754 91.66072 20.79049 -18.52194 -0 0 15.79903 -20.22882 11.72807 7.947219 6.225764 -22.93862 -3.395123 -93.4884 17.18894 23.33515 0 0 -8.218667 13.67499 15.71733 -6.797555
-1880.182 102.4498 1305.425 -5.872491 3.388852 -108.4059 7.56244 1.548499 0.09509518 -0 10.22737 -0 -10.13511 -6.072459 -0.5777654 0.001982735 -8.973642 -7.02847 -0 42.36352 -0 -4.218876 -6.95044 16.44777 0.8448919 -1.668903 5.402667 1.291934 13.39278 -7.397214 0.9678375 22.46698 5.206581 1.901957 -22.87257 7.2471 -2.09325 -22.5507 12.4754 91.66072 20.79049 -18.52194 -0 0 15.79903 -20.22882 11.72807 7.947219 6.225764 -22.93862 -3.395123 -93.4884 17.18894 23.33515 0 0 -8.218667 13.67499 15.71733 -6.797555
-1885.133 102.4519 1303.736 -5.860051 3.410368 -108.6156 7.56244 1.548499 0.09509518 -0 10.22737 -0 -10.13511 -6.072459 -0.5777654 0.001982735 -8.973642 -7.02847 -0 42.36352 -0 -4.218876 -6.95044 16.44777 0.8448919 -1.668903 5.402667 1.291934 13.39278 -7.397214 0.9678375 22.46698 5.206581 1.901957 -22.87257 7.2471 -2.09325 -22.5507 12.4754 91.66072 20.79049 -18.52194 -0 0 15.79903 -20.22882 11.72807 7.947219 6.225764 -22.93862 -3.395123 -93.4884 17.18894 23.33515 0 0 -8.218667 13.67499 15.71733 -6.797555
-1890.079 102.4541 1302.028 -5.847532 3.431839 -108.8254 7.56244 1.548499 0.09509518 -0 10.22737 -0 -10.13511 -6.072459 -0.5777654 0.001982735 -8.973642 -7.02847 -0 42.36352 -0 -4.218876 -6.95044 16.44777 0.8448919 -1.668903 5.402667 1.291934 13.39278 -7.397214 0.9678375 22.46698 5.206581 1.901957 -22.87257 7.2471 -2.09325 -22.5507 12.4754 91.66072 20.79049 -18.52194 -0 0 15.79903 -20.22882 11.72807 7.947219 6.225764 -22.93862 -3.395123 -93.4884 17.18894 23.33515 0 0 -8.218667 13.67499 15.71733 -6.797555
-1895.018 102.4563 1300.303 -5.834934 3.453264 -109.0352 7.56244 1.548499 0.09509518 -0 10.22737 -0 -10.13511 -6.072459 -0.5777654 0.001982735 -8.973642 -7.02847 -0 42.36352 -0 -4.218876 -6.95044 16.44777 0.8448919 -1.668903 5.402667 1.291934 13.39278 -7.397214 0.9678375 22.46698 5.206581 1.901957 -22.87257 7.2471 -2.09325 -22.5507 12.4754 91.66072 20.79049 -18.52194 -0 0 15.79903 -20.22882 11.72807 7.947219 6.225764 -22.93862 -3.395123 -93.4884 17.18894 23.33515 0 0 -8.218667 13.67499 15.71733 -6.797555
-1899.951 102.4584 1298.559 -5.822257 3.474643 -109.245 7.56244 1.548499 0.09509518 -0 10.22737 -0 -10.13511 -6.072459 -0.5777654 0.001982735 -8.973642 -7.02847 -0 42.36352 -0 -4.218876 -6.95044 16.44777 0.8448919 -1.668903 5.402667 1.291934 13.39278 -7.397214 0.9678375 22.46698 5.206581 1.901957 -22.87257 7.2471 -2.09325 -22.5507 12.4754 91.66072 20.79049 -18.52194 -0 0 15.79903 -20.22882 11.72807 7.947219 6.225764 -22.93862 -3.395123 -93.4884 17.18894 23.33515 0 0 -8.218667 13.67499 15.71733 -6.797555
-1904.877 102.4606 1296.798 -5.809501 3.495975 -109.4549 7.56244 1.548499 0.09509518 -0 10.22737 -0 -10.13511 -6.072459 -0.5777654 0.001982735 -8.973642 -7.02847 -0 42.36352 -0 -4.218876 -6.95044 16.44777 0.8448919 -1.668903 5.402667 1.291934 13.39278 -7.397214 0.9678375 22.46698 5.206581 1.901957 -22.87257 7.2471 -2.09325 -22.5507 12.4754 91.66072 20.79049 -18.52194 -0 0 15.79903 -20.22882 11.72807 7.947219 6.225764 -22.93862 -3.395123 -93.4884 17.18894 23.33515 0 0 -8.218667 13.67499 15.71733 -6.797555
-1909.797 102.4628 1295.018 -5.796667 3.51726 -109.6647 7.56244 1.548499 0.09509518 -0 10.22737 -0 -10.13511 -6.072459 -0.5777654 0.001982735 -8.973642 -7.02847 -0 42.36352 -0 -4.218876 -6.95044 16.44777 0.8448919 -1.668903 5.402667 1.291934 13.39278 -7.397214 0.9678375 22.46698 5.206581 1.901957 -22.87257 7.2471 -2.09325 -22.5507 12.4754 91.66072 20.79049 -18.52194 -0 0 15.79903 -20.22882 11.72807 7.947219 6.225764 -22.93862 -3.395123 -93.4884 17.18894 23.33515 0 0 -8.218667 13.67499 15.71733 -6.797555
-1914.71 102.4649 1293.22 -5.783755 3.538498 -109.8745 7.56244 1.548499 0.09509518 -0 10.22737 -0 -10.13511 -6.072459 -0.5777654 0.001982735 -8.973642 -7.02847 -0 42.36352 -0 -4.218876 -6.95044 16.44777 0.8448919 -1.668903 5.402667 1.291934 13.39278 -7.397214 0.9678375 22.46698 5.206581 1.901957 -22.87257 7.2471 -2.09325 -22.5507 12.4754 91.66072 20.79049 -18.52194 -0 0 15.79903 -20.22882 11.72807 7.947219 6.225764 -22.93862 -3.395123 -93.4884 17.18894 23.33515 0 0 -8.218667 13.67499 15.71733 -6.797555
